<svg width="464" height="189" viewBox="0 0 464 189" fill="none" xmlns="http://www.w3.org/2000/svg">
<path d="M166.5 0C131.703 0 103.5 28.203 103.5 63C103.5 91.8081 120.791 106.364 130.779 116.494C135.651 121.555 138.5 125.412 138.5 133V147H194.5V133C194.5 125.412 197.349 121.555 202.228 116.501C212.197 106.39 229.5 91.8663 229.5 63C229.5 28.203 201.297 0 166.5 0Z" fill="#FACE5A"/>
<path d="M194.5 147H138.5V175C138.5 178.866 141.634 182 145.5 182H152.5C152.5 185.866 155.634 189 159.5 189H173.5C177.366 189 180.5 185.866 180.5 182H187.5C191.366 182 194.5 178.866 194.5 175V147Z" fill="#ABABAB"/>
<path d="M152.5 70C167.964 70 180.5 57.464 180.5 42C180.5 26.536 167.964 14 152.5 14C137.036 14 124.5 26.536 124.5 42C124.5 57.464 137.036 70 152.5 70Z" fill="#F6D997"/>
<path d="M174.655 113.26C174.655 115.493 173.85 117.383 172.226 118.944C170.588 120.526 168.677 121.317 166.5 121.317C164.323 121.317 162.419 120.526 160.774 118.944C159.199 117.292 158.415 115.367 158.415 113.155C158.415 110.901 159.199 108.983 160.774 107.401C162.37 105.805 164.281 105 166.5 105C168.796 105 170.721 105.805 172.296 107.408C173.871 108.983 174.655 110.936 174.655 113.26ZM173.451 91H159.5V35H173.451V91Z" fill="#EEEEEE"/>
<path d="M166.5 147V154H138.5V161H166.5V168H138.5V175H166.5V182H152.5C152.5 185.866 155.634 189 159.5 189C164.566 189 168.434 189 173.5 189C177.366 189 180.5 185.866 180.5 182H187.5C191.366 182 194.5 178.866 194.5 175V147H166.5Z" fill="#676767"/>
<path d="M194.5 140H138.5V147H194.5V140Z" fill="#D3A132"/>
<path d="M46.582 71.7822H30.7617V125H17.7979V71.7822H2.24121V61.0156H46.582V71.7822ZM65.5225 81.626C68.2178 78.2568 71.5283 76.5723 75.4541 76.5723C79.79 76.5723 83.0859 78.0957 85.3418 81.1426C87.5977 84.1895 88.7402 88.7305 88.7695 94.7656V125H76.2891V94.8975C76.2891 92.1143 75.8496 90.1074 74.9707 88.877C74.1211 87.6172 72.7295 86.9873 70.7959 86.9873C68.54 86.9873 66.7822 88.0273 65.5225 90.1074V125H53.0859V57.5H65.5225V81.626ZM116.895 125.879C110.508 125.879 105.527 123.975 101.953 120.166C98.3789 116.357 96.5918 110.908 96.5918 103.818V100.039C96.5918 92.5391 98.2324 86.7529 101.514 82.6807C104.795 78.6084 109.497 76.5723 115.62 76.5723C121.597 76.5723 126.094 78.4912 129.111 82.3291C132.129 86.1377 133.667 91.792 133.726 99.292V105.4H108.984C109.16 108.916 109.937 111.494 111.313 113.135C112.69 114.746 114.814 115.552 117.686 115.552C121.846 115.552 125.317 114.131 128.101 111.289L132.979 118.804C131.455 120.913 129.243 122.627 126.343 123.945C123.442 125.234 120.293 125.879 116.895 125.879ZM109.072 96.6992H121.509V95.5566C121.45 92.7148 120.981 90.5615 120.103 89.0967C119.224 87.6318 117.7 86.8994 115.532 86.8994C113.364 86.8994 111.782 87.6758 110.786 89.2285C109.819 90.7812 109.248 93.2715 109.072 96.6992Z" fill="#EEEEEE"/>
<path d="M180.856 99.7754C180.856 91.9824 182.175 86.167 184.812 82.3291C187.448 78.4912 191.286 76.5723 196.325 76.5723C199.987 76.5723 203.034 78.1543 205.466 81.3184V57.5H217.99V125H206.696L206.125 120.166C203.576 123.975 200.295 125.879 196.281 125.879C191.301 125.879 187.492 123.975 184.855 120.166C182.248 116.357 180.915 110.762 180.856 103.379V99.7754ZM193.337 102.896C193.337 107.583 193.835 110.864 194.831 112.739C195.827 114.585 197.512 115.508 199.885 115.508C202.346 115.508 204.206 114.409 205.466 112.212V90.5029C204.235 88.1592 202.39 86.9873 199.929 86.9873C197.644 86.9873 195.974 87.9102 194.919 89.7559C193.864 91.6016 193.337 94.8828 193.337 99.5996V102.896ZM246.379 125.879C239.992 125.879 235.012 123.975 231.438 120.166C227.863 116.357 226.076 110.908 226.076 103.818V100.039C226.076 92.5391 227.717 86.7529 230.998 82.6807C234.279 78.6084 238.981 76.5723 245.104 76.5723C251.081 76.5723 255.578 78.4912 258.596 82.3291C261.613 86.1377 263.151 91.792 263.21 99.292V105.4H238.469C238.645 108.916 239.421 111.494 240.798 113.135C242.175 114.746 244.299 115.552 247.17 115.552C251.33 115.552 254.802 114.131 257.585 111.289L262.463 118.804C260.939 120.913 258.728 122.627 255.827 123.945C252.927 125.234 249.777 125.879 246.379 125.879ZM238.557 96.6992H250.993V95.5566C250.935 92.7148 250.466 90.5615 249.587 89.0967C248.708 87.6318 247.185 86.8994 245.017 86.8994C242.849 86.8994 241.267 87.6758 240.271 89.2285C239.304 90.7812 238.732 93.2715 238.557 96.6992ZM292.829 125C292.478 124.268 292.126 123.037 291.774 121.309C289.548 124.355 286.53 125.879 282.722 125.879C278.737 125.879 275.427 124.561 272.79 121.924C270.183 119.287 268.879 115.874 268.879 111.685C268.879 106.704 270.461 102.852 273.625 100.127C276.818 97.4023 281.403 96.0107 287.38 95.9521H291.159V92.1289C291.159 89.9902 290.793 88.4814 290.061 87.6025C289.328 86.7236 288.259 86.2842 286.853 86.2842C283.747 86.2842 282.194 88.1006 282.194 91.7334H269.758C269.758 87.3389 271.398 83.7207 274.68 80.8789C277.99 78.0078 282.165 76.5723 287.204 76.5723C292.419 76.5723 296.447 77.9346 299.289 80.6592C302.16 83.3545 303.596 87.2217 303.596 92.2607V114.629C303.654 118.73 304.24 121.938 305.354 124.253V125H292.829ZM285.49 116.123C286.867 116.123 288.039 115.845 289.006 115.288C289.973 114.731 290.69 114.072 291.159 113.311V103.423H288.171C286.062 103.423 284.392 104.097 283.161 105.444C281.96 106.792 281.359 108.594 281.359 110.85C281.359 114.365 282.736 116.123 285.49 116.123ZM333.962 125V61.0156H353.737C360.417 61.0156 365.485 62.5098 368.942 65.498C372.429 68.457 374.172 72.8076 374.172 78.5498C374.172 81.8018 373.454 84.5996 372.019 86.9434C370.583 89.2871 368.62 91.001 366.13 92.085C369.001 92.9053 371.213 94.5605 372.766 97.0508C374.318 99.5117 375.095 102.559 375.095 106.191C375.095 112.402 373.381 117.09 369.953 120.254C366.555 123.418 361.618 125 355.144 125H333.962ZM346.882 97.1826V114.277H355.144C357.458 114.277 359.216 113.56 360.417 112.124C361.618 110.688 362.219 108.652 362.219 106.016C362.219 100.273 360.139 97.3291 355.979 97.1826H346.882ZM346.882 87.7783H353.605C358.674 87.7783 361.208 85.1562 361.208 79.9121C361.208 77.0117 360.622 74.9316 359.45 73.6719C358.278 72.4121 356.374 71.7822 353.737 71.7822H346.882V87.7783ZM382.434 99.6875C382.434 92.4805 384.133 86.8262 387.531 82.7246C390.93 78.623 395.632 76.5723 401.638 76.5723C407.702 76.5723 412.434 78.623 415.832 82.7246C419.23 86.8262 420.93 92.5098 420.93 99.7754V102.808C420.93 110.044 419.245 115.698 415.876 119.771C412.507 123.843 407.79 125.879 401.726 125.879C395.632 125.879 390.886 123.843 387.487 119.771C384.118 115.669 382.434 109.985 382.434 102.72V99.6875ZM394.914 102.808C394.914 111.304 397.185 115.552 401.726 115.552C405.915 115.552 408.171 112.007 408.493 104.917L408.537 99.6875C408.537 95.3516 407.937 92.1436 406.735 90.0635C405.534 87.9541 403.835 86.8994 401.638 86.8994C399.528 86.8994 397.873 87.9541 396.672 90.0635C395.5 92.1436 394.914 95.3516 394.914 99.6875V102.808ZM443.649 91.5576L449.187 77.4512H462.37L451.516 100.698L462.766 125H449.538L443.693 110.103L437.893 125H424.621L435.871 100.698L425.104 77.4512H438.332L443.649 91.5576Z" fill="#EEEEEE"/>
</svg>
